<?xml version="1.0" standalone="no"?>
<!DOCTYPE svg PUBLIC "-//W3C//DTD SVG 20010904//EN"
 "http://www.w3.org/TR/2001/REC-SVG-20010904/DTD/svg10.dtd">
<svg version="1.0" xmlns="http://www.w3.org/2000/svg"
 width="255.000000pt" height="255.000000pt" viewBox="0 0 255.000000 255.000000"
 preserveAspectRatio="xMidYMid meet">
<metadata>
Created by potrace 1.11, written by Peter Selinger 2001-2013
</metadata>
<g transform="translate(0.000000,255.000000) scale(0.100000,-0.100000)"
fill="#000000" stroke="none">
<path d="M1123 2532 c-102 -36 -178 -100 -349 -292 -63 -70 -137 -182 -171
-257 -63 -141 -33 -312 84 -477 33 -46 34 -50 17 -59 -44 -23 -187 -181 -248
-274 -166 -253 -253 -514 -244 -727 7 -156 55 -246 163 -302 38 -20 55 -35 55
-49 1 -27 28 -59 67 -79 29 -14 112 -16 768 -16 724 0 736 0 776 21 30 15 46
32 60 65 11 24 26 44 33 44 20 0 91 55 120 93 118 155 78 494 -97 817 -98 181
-242 357 -334 409 -13 7 -9 16 20 57 98 139 140 289 111 400 -53 204 -329 511
-550 611 -79 35 -205 42 -281 15z m248 -339 c82 -40 188 -151 234 -245 31 -63
39 -92 43 -153 4 -70 3 -77 -27 -123 -39 -62 -121 -140 -231 -222 -123 -91
-117 -90 -191 -39 -150 100 -260 204 -300 281 -88 171 160 527 367 528 35 0
67 -8 105 -27z"/>
</g>
</svg>
